<svg width="21" height="19" viewBox="0 0 21 19" fill="none" xmlns="http://www.w3.org/2000/svg">
<path d="M15.1875 0.502121C13.2516 0.502121 11.5566 1.33462 10.5 2.74181C9.44344 1.33462 7.74844 0.502121 5.8125 0.502121C4.27146 0.503858 2.79404 1.1168 1.70436 2.20648C0.614681 3.29616 0.00173694 4.77358 0 6.31462C0 12.8771 9.73031 18.189 10.1447 18.4084C10.2539 18.4671 10.376 18.4979 10.5 18.4979C10.624 18.4979 10.7461 18.4671 10.8553 18.4084C11.2697 18.189 21 12.8771 21 6.31462C20.9983 4.77358 20.3853 3.29616 19.2956 2.20648C18.206 1.1168 16.7285 0.503858 15.1875 0.502121ZM10.5 16.8896C8.78813 15.8921 1.5 11.3481 1.5 6.31462C1.50149 5.17133 1.95632 4.0753 2.76475 3.26687C3.57317 2.45844 4.66921 2.00361 5.8125 2.00212C7.63594 2.00212 9.16687 2.97337 9.80625 4.53337C9.86275 4.67093 9.95888 4.78858 10.0824 4.87139C10.2059 4.95419 10.3513 4.9984 10.5 4.9984C10.6487 4.9984 10.7941 4.95419 10.9176 4.87139C11.0411 4.78858 11.1372 4.67093 11.1937 4.53337C11.8331 2.97056 13.3641 2.00212 15.1875 2.00212C16.3308 2.00361 17.4268 2.45844 18.2353 3.26687C19.0437 4.0753 19.4985 5.17133 19.5 6.31462C19.5 11.3406 12.21 15.8912 10.5 16.8896Z" fill="#010101"/>
</svg>
